<svg xmlns="http://www.w3.org/2000/svg" xmlns:xlink="http://www.w3.org/1999/xlink" version="1.1" width="1000" height="1000" viewBox="0 0 1000 1000" xml:space="preserve">
<desc>Created with Fabric.js 3.5.0</desc>
<defs>
</defs>
<rect x="0" y="0" width="100%" height="100%" fill="#ffffff"/>
<g transform="matrix(0.534 0 0 0.534 242.6611 478.6273)" id="520911">
<g style="" vector-effect="non-scaling-stroke">
		<g transform="matrix(2.2161 0 0 2.2161 0.0043 77.405)">
<path style="stroke: none; stroke-width: 1; stroke-dasharray: none; stroke-linecap: butt; stroke-dashoffset: 0; stroke-linejoin: miter; stroke-miterlimit: 4; is-custom-font: none; font-file-url: none; fill: rgb(228,77,38); fill-rule: nonzero; opacity: 1;" transform=" translate(-128, -215.4268)" d="M 255.554813 70.7657143 L 232.31367 331.125451 L 127.843868 360.087912 L 23.6617143 331.166242 L 0.445186813 70.7657143 L 255.554813 70.7657143 L 255.554813 70.7657143 Z" stroke-linecap="round"/>
</g>
		<g transform="matrix(2.2161 0 0 2.2161 115.5451 76.4668)">
<path style="stroke: none; stroke-width: 1; stroke-dasharray: none; stroke-linecap: butt; stroke-dashoffset: 0; stroke-linejoin: miter; stroke-miterlimit: 4; is-custom-font: none; font-file-url: none; fill: rgb(241,101,41); fill-rule: nonzero; opacity: 1;" transform=" translate(-180.1389, -215.0038)" d="M 128 337.950242 L 212.416703 314.546637 L 232.277802 92.0573187 L 128 92.0573187 L 128 337.950242 L 128 337.950242 Z" stroke-linecap="round"/>
</g>
		<g transform="matrix(2.2161 0 0 2.2161 -88.7333 -18.2061)">
<path style="stroke: none; stroke-width: 1; stroke-dasharray: none; stroke-linecap: butt; stroke-dashoffset: 0; stroke-linejoin: miter; stroke-miterlimit: 4; is-custom-font: none; font-file-url: none; fill: rgb(235,235,235); fill-rule: nonzero; opacity: 1;" transform=" translate(-87.9585, -172.2838)" d="M 82.8202198 155.932132 L 128 155.932132 L 128 123.994725 L 47.917011 123.994725 L 48.6814945 132.562989 L 56.530989 220.572835 L 128 220.572835 L 128 188.636132 L 85.7389011 188.636132 L 82.8202198 155.932132 L 82.8202198 155.932132 Z" stroke-linecap="round"/>
</g>
		<g transform="matrix(2.2161 0 0 2.2161 -77.6077 199.8801)">
<path style="stroke: none; stroke-width: 1; stroke-dasharray: none; stroke-linecap: butt; stroke-dashoffset: 0; stroke-linejoin: miter; stroke-miterlimit: 4; is-custom-font: none; font-file-url: none; fill: rgb(235,235,235); fill-rule: nonzero; opacity: 1;" transform=" translate(-92.979, -270.6954)" d="M 90.0177582 236.54189 L 57.957978 236.54189 L 62.4323516 286.687648 L 127.853011 304.848879 L 128 304.808088 L 128 271.580132 L 127.860044 271.617407 L 92.2915165 262.013187 L 90.0177582 236.54189 L 90.0177582 236.54189 Z" stroke-linecap="round"/>
</g>
		<g transform="matrix(2.2161 0 0 2.2161 -177.6515 -346.1948)">
<path style="stroke: none; stroke-width: 1; stroke-dasharray: none; stroke-linecap: butt; stroke-dashoffset: 0; stroke-linejoin: miter; stroke-miterlimit: 4; is-custom-font: none; font-file-url: none; fill: rgb(0,0,0); fill-rule: nonzero; opacity: 1;" transform=" translate(-47.8344, -24.2792)" d="M 24.1807473 0 L 40.4107253 0 L 40.4107253 16.0351648 L 55.2573187 16.0351648 L 55.2573187 0 L 71.488 0 L 71.488 48.5584176 L 55.258022 48.5584176 L 55.258022 32.2981978 L 40.4114286 32.2981978 L 40.4114286 48.5584176 L 24.1814505 48.5584176 L 24.1814505 0 L 24.1807473 0 L 24.1807473 0 Z" stroke-linecap="round"/>
</g>
		<g transform="matrix(2.2161 0 0 2.2161 -59.9442 -346.1948)">
<path style="stroke: none; stroke-width: 1; stroke-dasharray: none; stroke-linecap: butt; stroke-dashoffset: 0; stroke-linejoin: miter; stroke-miterlimit: 4; is-custom-font: none; font-file-url: none; fill: rgb(0,0,0); fill-rule: nonzero; opacity: 1;" transform=" translate(-100.9498, -24.2792)" d="M 92.8309451 16.1026813 L 78.5427692 16.1026813 L 78.5427692 0 L 123.356835 0 L 123.356835 16.1026813 L 109.06233 16.1026813 L 109.06233 48.5584176 L 92.8316484 48.5584176 L 92.8316484 16.1026813 L 92.8309451 16.1026813 L 92.8309451 16.1026813 Z" stroke-linecap="round"/>
</g>
		<g transform="matrix(2.2161 0 0 2.2161 66.0414 -346.1948)">
<path style="stroke: none; stroke-width: 1; stroke-dasharray: none; stroke-linecap: butt; stroke-dashoffset: 0; stroke-linejoin: miter; stroke-miterlimit: 4; is-custom-font: none; font-file-url: none; fill: rgb(0,0,0); fill-rule: nonzero; opacity: 1;" transform=" translate(-157.8008, -24.2792)" d="M 130.469275 0 L 147.392703 0 L 157.802901 17.061978 L 168.202549 0 L 185.132308 0 L 185.132308 48.5584176 L 168.969143 48.5584176 L 168.969143 24.4901978 L 157.802901 41.7554286 L 157.523692 41.7554286 L 146.349714 24.4901978 L 146.349714 48.5584176 L 130.469275 48.5584176 L 130.469275 0 L 130.469275 0 Z" stroke-linecap="round"/>
</g>
		<g transform="matrix(2.2161 0 0 2.2161 187.7883 -346.1948)">
<path style="stroke: none; stroke-width: 1; stroke-dasharray: none; stroke-linecap: butt; stroke-dashoffset: 0; stroke-linejoin: miter; stroke-miterlimit: 4; is-custom-font: none; font-file-url: none; fill: rgb(0,0,0); fill-rule: nonzero; opacity: 1;" transform=" translate(-212.7392, -24.2792)" d="M 193.20967 0 L 209.444571 0 L 209.444571 32.5077802 L 232.268659 32.5077802 L 232.268659 48.5584176 L 193.20967 48.5584176 L 193.20967 0 L 193.20967 0 Z" stroke-linecap="round"/>
</g>
		<g transform="matrix(2.2161 0 0 2.2161 82.0139 146.7826)">
<path style="stroke: none; stroke-width: 1; stroke-dasharray: none; stroke-linecap: butt; stroke-dashoffset: 0; stroke-linejoin: miter; stroke-miterlimit: 4; is-custom-font: none; font-file-url: none; fill: rgb(255,255,255); fill-rule: nonzero; opacity: 1;" transform=" translate(-165.0082, -246.7348)" d="M 127.889582 220.572835 L 167.216527 220.572835 L 163.509451 261.992791 L 127.889582 271.606857 L 127.889582 304.833407 L 193.362286 286.687648 L 193.842637 281.291956 L 201.347516 197.212132 L 202.126769 188.636132 L 127.889582 188.636132 L 127.889582 220.572835 L 127.889582 220.572835 Z" stroke-linecap="round"/>
</g>
		<g transform="matrix(2.2161 0 0 2.2161 88.4025 -89.8312)">
<path style="stroke: none; stroke-width: 1; stroke-dasharray: none; stroke-linecap: butt; stroke-dashoffset: 0; stroke-linejoin: miter; stroke-miterlimit: 4; is-custom-font: none; font-file-url: none; fill: rgb(255,255,255); fill-rule: nonzero; opacity: 1;" transform=" translate(-167.891, -139.9634)" d="M 127.889582 155.854066 L 127.889582 155.932132 L 205.032791 155.932132 L 205.673495 148.753582 L 207.128615 132.562989 L 207.892396 123.994725 L 127.889582 123.994725 L 127.889582 155.854066 L 127.889582 155.854066 Z" stroke-linecap="round"/>
</g>
</g>
</g>
<g transform="matrix(10.2763 0 0 10.2763 686.6722 520.9782)" id="142450">
<g style="" vector-effect="non-scaling-stroke">
		<g transform="matrix(1 0 0 1 0.001 0)" id="Layer_1">
<polygon style="stroke: none; stroke-width: 1; stroke-dasharray: none; stroke-linecap: butt; stroke-dashoffset: 0; stroke-linejoin: miter; stroke-miterlimit: 4; is-custom-font: none; font-file-url: none; fill: rgb(31,98,174); fill-rule: nonzero; opacity: 1;" points="11.376,12.889 0,16 -11.376,12.889 -14.001,-16 14.001,-16 "/>
</g>
		<g transform="matrix(1 0 0 1 5.844 -0.125)" id="Layer_1">
<polygon style="stroke: none; stroke-width: 1; stroke-dasharray: none; stroke-linecap: butt; stroke-dashoffset: 0; stroke-linejoin: miter; stroke-miterlimit: 4; is-custom-font: none; font-file-url: none; fill: rgb(52,125,198); fill-rule: nonzero; opacity: 1;" points="-5.844,-13.875 -5.844,13.875 3.388,11.133 5.844,-13.875 "/>
</g>
		<g transform="matrix(1 0 0 1 -0.015 -0.005)" id="Layer_1">
<polygon style="stroke: none; stroke-width: 1; stroke-dasharray: none; stroke-linecap: butt; stroke-dashoffset: 0; stroke-linejoin: miter; stroke-miterlimit: 4; is-custom-font: none; font-file-url: none; fill: rgb(255,255,255); fill-rule: nonzero; opacity: 1;" points="8.378,-9.995 -8.378,-9.995 -7.985,-5.995 0.015,-5.995 -7.735,-3.005 -7.366,1.005 3.517,1.005 3.173,5.005 0.015,5.995 -3.124,4.989 -3.452,3.005 -7.182,3.005 -6.723,7.992 0.015,9.995 6.743,7.991 7.734,-3.005 0.041,-3.005 8.015,-5.995 "/>
</g>
</g>
</g>
<g transform="matrix(1 0 0 1 691.6857 298.132)" style="" id="801327">
		
<path xml:space="preserve" font-family="Acme" font-size="108" font-style="normal" font-weight="normal" style="stroke: none; stroke-width: 1; stroke-dasharray: none; stroke-linecap: butt; stroke-dashoffset: 0; stroke-linejoin: miter; stroke-miterlimit: 4; is-custom-font: none; font-file-url: none; fill: rgb(0,0,0); fill-rule: nonzero; opacity: 1; white-space: pre;" d="M-52.43 35.12L-52.43 35.12Q-64.42 35.12-72.63 25.07Q-80.84 15.03-80.84 0.45L-80.84 0.45Q-80.84-17.37-70.96-29.58Q-61.07-41.78-46.71-41.78L-46.71-41.78Q-41.09-41.78-36.29-40.65Q-31.48-39.51-29.43-38.32L-29.43-38.32L-27.49-37.14L-34.83-22.12Q-37.31-24.28-41.85-26.17Q-46.39-28.06-50.06-28.06L-50.06-28.06Q-57.51-28.06-61.99-21.91Q-66.47-15.75-66.47-4.36Q-66.47 7.04-61.83 14.33Q-57.19 21.62-49.19 21.62L-49.19 21.62Q-44.01 21.62-39.80 18.38Q-35.59 15.14-33.86 9.74L-33.86 9.74L-24.89 14.92Q-28.46 24.42-35.80 29.77Q-43.15 35.12-52.43 35.12ZM-23.17 24.10L-14.74 12.44Q-5.56 21.62 3.62 21.62L3.62 21.62Q8.37 21.62 11.23 19.40Q14.09 17.19 14.09 13.68Q14.09 10.17 10.64 7.74Q7.18 5.31 2.27 3.47Q-2.65 1.64-7.51-0.69Q-12.37-3.01-15.82-7.33Q-19.28-11.65-19.28-17.80L-19.28-17.80Q-19.28-27.52-11.18-34.60Q-3.08-41.67 8.05-41.67L8.05-41.67Q13.12-41.67 17.87-40.59Q22.63-39.51 27.05-37.46L27.05-37.46L19.71-21.69Q16.69-24.07 11.45-26.07Q6.21-28.06 2.27-28.06Q-1.67-28.06-4.10-26.17Q-6.53-24.28-6.53-21.15Q-6.53-18.02-3.08-15.59Q0.38-13.16 5.29-11.32Q10.21-9.49 15.12-7.27Q20.03-5.06 23.49-0.74Q26.95 3.58 26.95 9.74L26.95 9.74Q26.95 19.89 18.85 27.50Q10.75 35.12-0.05 35.12L-0.05 35.12Q-8.15 35.12-14.42 31.23L-14.42 31.23Q-19.93 27.88-22.19 25.29L-22.19 25.29L-23.17 24.10ZM31.16 24.10L39.58 12.44Q48.76 21.62 57.94 21.62L57.94 21.62Q62.69 21.62 65.56 19.40Q68.42 17.19 68.42 13.68Q68.42 10.17 64.96 7.74Q61.51 5.31 56.59 3.47Q51.68 1.64 46.82-0.69Q41.96-3.01 38.50-7.33Q35.05-11.65 35.05-17.80L35.05-17.80Q35.05-27.52 43.15-34.60Q51.25-41.67 62.37-41.67L62.37-41.67Q67.45-41.67 72.20-40.59Q76.95-39.51 81.38-37.46L81.38-37.46L74.03-21.69Q71.01-24.07 65.77-26.07Q60.53-28.06 56.59-28.06Q52.65-28.06 50.22-26.17Q47.79-24.28 47.79-21.15Q47.79-18.02 51.25-15.59Q54.70-13.16 59.62-11.32Q64.53-9.49 69.44-7.27Q74.36-5.06 77.81-0.74Q81.27 3.58 81.27 9.74L81.27 9.74Q81.27 19.89 73.17 27.50Q65.07 35.12 54.27 35.12L54.27 35.12Q46.17 35.12 39.91 31.23L39.91 31.23Q34.40 27.88 32.13 25.29L32.13 25.29L31.16 24.10Z"/></g>
</svg>